<svg id="Layer_1" data-name="Layer 1" xmlns="http://www.w3.org/2000/svg" viewBox="0 0 1050 385.22"><defs><style>.cls-1{fill:#d4cbe3;}.cls-2{fill:#c194ff;}.cls-3{fill:#a26ad3;}</style></defs><title>clouds</title><rect class="cls-1" y="63.22" width="1050" height="322"/><path class="cls-2" d="M518.62,107.14A79.87,79.87,0,0,1,438.75,187H210.89A63.9,63.9,0,0,1,188.66,63.2c-.09-1.32-.15-2.64-.15-4a59.32,59.32,0,0,1,88.24-51.8A90.83,90.83,0,0,1,456.13,27.59c0,.53,0,1.05,0,1.58A79.89,79.89,0,0,1,518.62,107.14Z" transform="translate(25 63.22)"/><path class="cls-3" d="M87.51,125.17c0-.53,0-1,0-1.58a90.83,90.83,0,0,1,179.38-20.17,59.32,59.32,0,0,1,88.24,51.8c0,1.34-.06,2.66-.15,4A63.9,63.9,0,0,1,332.73,283H104.86A79.87,79.87,0,0,1,87.51,125.17Z" transform="translate(25 63.22)"/><path class="cls-2" d="M369.51,159.17c0-.53,0-1,0-1.58a90.83,90.83,0,0,1,179.38-20.17,59.32,59.32,0,0,1,88.24,51.8c0,1.34-.06,2.66-.15,4A63.9,63.9,0,0,1,614.73,317H386.86a79.87,79.87,0,0,1-17.35-157.83Z" transform="translate(25 63.22)"/><path class="cls-3" d="M317.51,159.17c0-.53,0-1,0-1.58a90.83,90.83,0,0,1,179.38-20.17,59.32,59.32,0,0,1,88.24,51.8c0,1.34-.06,2.66-.15,4A63.9,63.9,0,0,1,562.73,317H334.86a79.87,79.87,0,0,1-17.35-157.83Z" transform="translate(25 63.22)"/><path class="cls-2" d="M37.51,159.17c0-.53,0-1,0-1.58a90.83,90.83,0,0,1,179.38-20.17,59.32,59.32,0,0,1,88.24,51.8c0,1.34-.06,2.66-.15,4A63.9,63.9,0,0,1,282.73,317H54.86A79.87,79.87,0,0,1,37.51,159.17Z" transform="translate(25 63.22)"/><path class="cls-3" d="M980,207.23c0,42.52-32.22,77-72,77H702.67c-31.8,0-57.57-27.57-57.57-61.59,0-26.48,15.62-49,37.54-57.76-.08-1.27-.14-2.54-.14-3.83,0-31.59,23.94-57.2,53.46-57.2a50.56,50.56,0,0,1,26,7.26c8.27-39,40.85-68.1,79.8-68.1,45.19,0,81.83,39.2,81.83,87.55,0,.5,0,1,0,1.52C955.85,139.7,980,170.45,980,207.23Z" transform="translate(25 63.22)"/><path class="cls-2" d="M725.85,240c0,42.52-32.22,77-72,77H448.57c-31.8,0-57.57-27.58-57.57-61.59,0-26.48,15.62-49,37.54-57.76-.08-1.27-.13-2.55-.13-3.84,0-31.58,23.93-57.19,53.45-57.19a50.43,50.43,0,0,1,26.05,7.26c8.27-39,40.86-68.1,79.8-68.1,45.19,0,81.83,39.19,81.83,87.54,0,.51,0,1,0,1.52C701.75,172.48,725.85,203.23,725.85,240Z" transform="translate(25 63.22)"/><path class="cls-3" d="M772.7,240c0,42.52-32.21,77-72,77H495.43c-31.8,0-57.58-27.58-57.58-61.59,0-26.48,15.63-49,37.54-57.76-.08-1.27-.13-2.55-.13-3.84,0-31.58,23.93-57.19,53.46-57.19a50.46,50.46,0,0,1,26,7.26c8.26-39,40.85-68.1,79.8-68.1,45.19,0,81.83,39.19,81.83,87.54,0,.51,0,1,0,1.52C748.6,172.48,772.7,203.23,772.7,240Z" transform="translate(25 63.22)"/><path class="cls-2" d="M1025,240c0,42.52-32.22,77-72,77H747.72c-31.8,0-57.57-27.58-57.57-61.59,0-26.48,15.62-49,37.54-57.76-.08-1.27-.13-2.55-.13-3.84,0-31.58,23.93-57.19,53.45-57.19a50.43,50.43,0,0,1,26,7.26c8.27-39,40.86-68.1,79.8-68.1,45.19,0,81.83,39.19,81.83,87.54,0,.51,0,1,0,1.52C1000.9,172.48,1025,203.23,1025,240Z" transform="translate(25 63.22)"/></svg>