<?xml version="1.0" encoding="utf-8"?>
<!-- Generator: Adobe Illustrator 22.1.0, SVG Export Plug-In . SVG Version: 6.00 Build 0)  -->
<svg version="1.1" id="Layer_1" xmlns="http://www.w3.org/2000/svg" xmlns:xlink="http://www.w3.org/1999/xlink" x="0px" y="0px"
	 viewBox="0 0 448 448" style="enable-background:new 0 0 448 448;" xml:space="preserve">
<style type="text/css">
	.st0{opacity:0.46;fill:url(#SVGID_1_);}
	.st1{opacity:0.46;fill:url(#SVGID_2_);}
	.st2{opacity:0.46;fill:url(#SVGID_3_);}
</style>
<g>
	<g>
		<g>
			<linearGradient id="SVGID_1_" gradientUnits="userSpaceOnUse" x1="209.9512" y1="127.8826" x2="218.4424" y2="276.0084">
				<stop  offset="0" style="stop-color:#6F607F"/>
				<stop  offset="1" style="stop-color:#93278F"/>
			</linearGradient>
			<path class="st0" d="M111.4,165.1c0-0.5,0-0.9,0-1.4c0-43.1,34.6-78,77.3-78c36.8,0,67.5,25.9,75.4,60.7
				c7.3-4.1,15.7-6.5,24.6-6.5c27.9,0,50.5,22.8,50.5,51c0,1.2-0.1,2.3-0.1,3.4c20.7,7.8,35.4,27.9,35.4,51.5
				c0,30.3-24.3,54.9-54.4,54.9H126.2c-37.5,0-68-30.7-68-68.6C58.2,199.3,81,171.9,111.4,165.1z"/>
		</g>
	</g>
	<g>
		<g>
			<linearGradient id="SVGID_2_" gradientUnits="userSpaceOnUse" x1="236.3267" y1="144.2008" x2="244.818" y2="292.3266">
				<stop  offset="0" style="stop-color:#6F607F"/>
				<stop  offset="1" style="stop-color:#93278F"/>
			</linearGradient>
			<path class="st1" d="M137.8,181.4c0-0.5,0-0.9,0-1.4c0-43.1,34.6-78,77.3-78c36.8,0,67.5,25.9,75.4,60.7
				c7.3-4.1,15.7-6.5,24.6-6.5c27.9,0,50.5,22.8,50.5,51c0,1.2-0.1,2.3-0.1,3.4c20.7,7.8,35.4,27.9,35.4,51.5
				c0,30.3-24.3,54.9-54.4,54.9H152.6c-37.5,0-68-30.7-68-68.6C84.6,215.6,107.4,188.2,137.8,181.4z"/>
		</g>
	</g>
	<g>
		<g>
			<linearGradient id="SVGID_3_" gradientUnits="userSpaceOnUse" x1="198.8904" y1="144.2008" x2="207.3817" y2="292.3266">
				<stop  offset="0" style="stop-color:#6F607F"/>
				<stop  offset="1" style="stop-color:#93278F"/>
			</linearGradient>
			<path class="st2" d="M100.4,181.4c0-0.5,0-0.9,0-1.4c0-43.1,34.6-78,77.3-78c36.8,0,67.5,25.9,75.4,60.7
				c7.3-4.1,15.7-6.5,24.6-6.5c27.9,0,50.5,22.8,50.5,51c0,1.2-0.1,2.3-0.1,3.4c20.7,7.8,35.4,27.9,35.4,51.5
				c0,30.3-24.3,54.9-54.4,54.9H115.1c-37.5,0-68-30.7-68-68.6C47.2,215.6,69.9,188.2,100.4,181.4z"/>
		</g>
	</g>
</g>
</svg>
