<?xml version="1.0" encoding="utf-8"?>
<!-- Generator: Adobe Illustrator 22.1.0, SVG Export Plug-In . SVG Version: 6.00 Build 0)  -->
<svg version="1.1" id="Layer_1" xmlns="http://www.w3.org/2000/svg" xmlns:xlink="http://www.w3.org/1999/xlink" x="0px" y="0px"
	 viewBox="0 0 345.1 345.1" style="enable-background:new 0 0 345.1 345.1;" xml:space="preserve">
<style type="text/css">
	.st0{fill:#936BB2;}
	.st1{fill:#B963D6;}
</style>
<g>
	<path class="st0" d="M264.3,301.7c-2.5,3-5.1,5.9-7.9,8.7c-23.1,23.1-53.5,34.7-83.8,34.7s-60.7-11.6-83.8-34.7
		C65.9,287.5,54,257.2,54,226.6c0-21.3,5.7-42.8,17.5-61.9l21.2-34.5L172.6,0l31.7,51.6l24.3,39.6l45.1,73.5
		C300.2,208,296,263,264.3,301.7z"/>
	<path class="st1" d="M264.3,301.7L92.7,130.1L172.6,0l31.7,51.6l24.3,39.6l45.1,73.5C300.2,208,296,263,264.3,301.7z"/>
</g>
</svg>
